<svg xmlns="http://www.w3.org/2000/svg"><g><rect x="50" y="50" width="200" height="100" fill="blue"></rect><path d="M7.63-6.82L12.94-16.46L10.90-16.46L6.79-8.83L6.70-8.83L2.52-16.46L0.19-16.46L5.52-6.82L5.52 0L7.63 0ZM16.80-12.91C13.85-12.91 12.29-10.85 12.29-6.31C12.29-1.78 13.85 0.29 16.80 0.29C19.75 0.29 21.31-1.78 21.31-6.31C21.31-10.85 19.75-12.91 16.80-12.91ZM16.80-11.16C18.43-11.16 19.25-9.67 19.25-6.77L19.25-5.86C19.25-2.95 18.43-1.46 16.80-1.46C15.17-1.46 14.35-2.95 14.35-5.86L14.35-6.77C14.35-9.67 15.17-11.16 16.80-11.16ZM31.78 0L31.78-12.62L29.81-12.62L29.81-4.92C29.81-2.74 28.70-1.46 27.46-1.46C26.40-1.46 25.68-1.92 25.68-3.67L25.68-12.62L23.71-12.62L23.71-3.53C23.71-0.72 24.94 0.29 26.83 0.29C28.08 0.29 29.18-0.22 29.88-1.46L30.02-1.46L30.29 0ZM38.69-12.91C37.49-12.91 36.86-11.93 36.55-10.97L36.41-10.97L36.14-12.62L34.66-12.62L34.66 0L36.62 0L36.62-7.70C36.62-9.94 37.73-10.68 38.98-10.68L39.62-10.68L39.62-12.72C39.62-12.72 39.22-12.91 38.69-12.91ZM45.36-16.46L45.36-14.54L49.85-14.54L49.85 0L51.96 0L51.96-14.54L56.45-14.54L56.45-16.46ZM60.50-12.91C57.34-12.91 55.75-10.85 55.75-6.31C55.75-1.63 57.38 0.29 60.53 0.29C62.98 0.29 64.66-1.46 64.66-4.30L62.71-4.30C62.71-2.54 61.82-1.46 60.58-1.46C58.70-1.46 57.84-2.78 57.82-5.74L64.66-5.74L64.66-6.98C64.66-11.21 63.26-12.91 60.50-12.91ZM60.50-11.16C61.87-11.16 62.59-9.89 62.59-7.49L57.84-7.49C58.01-9.91 58.75-11.16 60.50-11.16ZM71.69-6.55L75.22-12.62L73.01-12.62L70.66-8.30L68.38-12.62L66-12.62L69.50-6.38L65.83 0L67.99 0L70.54-4.61L73.01 0L75.38 0ZM78.91-12.62L78.91-16.13L77.38-16.13L76.94-12.62L75.86-12.62L75.86-10.87L76.94-10.87L76.94-2.66C76.94-1.22 77.47 0.24 79.20 0.24C79.68 0.24 80.28 0.10 80.62-0.10L80.62-1.46L80.04-1.46C79.30-1.46 78.91-1.87 78.91-2.62L78.91-10.87L80.62-10.87L80.62-12.62ZM99 0L99-16.46L96.89-16.46L96.89-9.38L90.26-9.38L90.26-16.46L88.15-16.46L88.15 0L90.26 0L90.26-7.46L96.89-7.46L96.89 0ZM106.44-12.91C103.27-12.91 101.69-10.85 101.69-6.31C101.69-1.63 103.32 0.29 106.46 0.29C108.91 0.29 110.59-1.46 110.59-4.30L108.65-4.30C108.65-2.54 107.76-1.46 106.51-1.46C104.64-1.46 103.78-2.78 103.75-5.74L110.59-5.74L110.59-6.98C110.59-11.21 109.20-12.91 106.44-12.91ZM106.44-11.16C107.81-11.16 108.53-9.89 108.53-7.49L103.78-7.49C103.94-9.91 104.69-11.16 106.44-11.16ZM117.10-12.91C115.90-12.91 115.27-11.93 114.96-10.97L114.82-10.97L114.55-12.62L113.06-12.62L113.06 0L115.03 0L115.03-7.70C115.03-9.94 116.14-10.68 117.38-10.68L118.03-10.68L118.03-12.72C118.03-12.72 117.62-12.91 117.10-12.91ZM123.94-12.91C120.77-12.91 119.18-10.85 119.18-6.31C119.18-1.63 120.82 0.29 123.96 0.29C126.41 0.29 128.09-1.46 128.09-4.30L126.14-4.30C126.14-2.54 125.26-1.46 124.01-1.46C122.14-1.46 121.27-2.78 121.25-5.74L128.09-5.74L128.09-6.98C128.09-11.21 126.70-12.91 123.94-12.91ZM123.94-11.16C125.30-11.16 126.02-9.89 126.02-7.49L121.27-7.49C121.44-9.91 122.18-11.16 123.94-11.16Z" transform="translate(50, 100)" fill="white"></path></g></svg>